
<svg width="1435px" height="749px" viewBox="0 0 1435 749" version="1.1" xmlns="http://www.w3.org/2000/svg" xmlns:xlink="http://www.w3.org/1999/xlink">
    <g id="Page-1" stroke="none" stroke-width="1" fill="none" fill-rule="evenodd">
        <g id="Homepage-Copy">
            <g id="Group" opacity="0.241745722" transform="translate(1030.500000, 382.500000) rotate(-367.000000) translate(-1030.500000, -382.500000) translate(467.000000, -56.000000)">
                <circle id="Oval" stroke="#C9C9C9" stroke-width="2" fill="#FFFFFF" cx="906.5" cy="405.5" r="11.5"></circle>
                <circle id="Oval-Copy" stroke="#C9C9C9" stroke-width="2" fill="#FFFFFF" cx="789.5" cy="710.5" r="11.5"></circle>
                <circle id="Oval-Copy-2" stroke="#C9C9C9" stroke-width="2" fill="#FFFFFF" cx="443.5" cy="635.5" r="11.5"></circle>
                <circle id="Oval-Copy-3" stroke="#C9C9C9" stroke-width="2" fill="#FFFFFF" cx="620.5" cy="485.5" r="11.5"></circle>
                <circle id="Oval-Copy-4" stroke="#C9C9C9" stroke-width="2" fill="#FFFFFF" cx="240.5" cy="598.5" r="11.5"></circle>
                <circle id="Oval-Copy-9" stroke="#C9C9C9" stroke-width="2" fill="#FFFFFF" cx="578.5" cy="115.5" r="11.5"></circle>
                <circle id="Oval-Copy-7" stroke="#C9C9C9" stroke-width="2" fill="#FFFFFF" cx="814.5" cy="283.5" r="11.5"></circle>
                <circle id="Oval-Copy-5" stroke="#C9C9C9" stroke-width="2" fill="#FFFFFF" cx="340.5" cy="763.5" r="11.5"></circle>
                <circle id="Oval-Copy-6" stroke="#C9C9C9" stroke-width="2" fill="#FFFFFF" cx="645.5" cy="283.5" r="11.5"></circle>
                <path d="M645,283 L620,485" id="Path-2" stroke="#979797"></path>
                <polygon id="Path-3" stroke="#979797" points="813.882353 283 645 283 906 12"></polygon>
                <polyline id="Path-4" stroke="#979797" points="789 711 907 406.28934 907 13"></polyline>
                <path d="M907,406 L814,283" id="Path-5" stroke="#979797"></path>
                <path d="M790,711 L621,485" id="Path-6" stroke="#979797" stroke-dasharray="10"></path>
                <path d="M340,764 L443,635" id="Path-7" stroke="#979797"></path>
                <path d="M443,635 L620,485" id="Path-8" stroke="#979797"></path>
                <path d="M443,635 L789,711" id="Path-9" stroke="#979797"></path>
                <polyline id="Path-10" stroke="#979797" points="341 764.069384 789.604353 711 802 833"></polyline>
                <path d="M1000,811 L790,711" id="Path-11" stroke="#979797"></path>
                <path d="M907,406 L1000,296" id="Path-12" stroke="#979797"></path>
                <path d="M907,13 L1064,187" id="Path-13" stroke="#979797"></path>
                <path d="M645,270 L577,115" id="Path-15" stroke="#979797" stroke-dasharray="10"></path>
                <path d="M814,283 L620,485" id="Path-16" stroke="#979797"></path>
                <path id="Path-14" d="M240.089656,597.508104 L438.689719,633.705759 C439.337994,631.537061 441.528296,630.157622 443.806904,630.572935 C446.251904,631.018575 447.872706,633.361903 447.427065,635.806904 C446.981425,638.251904 444.638097,639.872706 442.193096,639.427065 C439.914342,639.011726 438.351516,636.94799 438.510302,634.689862 L239.910344,598.491896 L240.089656,597.508104 Z M443.627592,631.556727 C441.725924,631.210118 439.903336,632.470741 439.556727,634.372408 C439.210118,636.274076 440.470741,638.096664 442.372408,638.443273 C444.274076,638.789882 446.096664,637.529259 446.443273,635.627592 C446.789882,633.725924 445.529259,631.903336 443.627592,631.556727 Z" fill="#979797" fill-rule="nonzero"></path>
                <path d="" id="Path-17" stroke="#979797"></path>
                <path d="M443,635 L577,110" id="Line-2" stroke="#979797" stroke-linecap="square"></path>
                <path d="M204.700139,593.351667 L871.700139,400.351667" id="Path-18" stroke="#979797" stroke-dasharray="10"></path>
                <path d="M577,115 L907,12" id="Path-19" stroke="#979797" stroke-dasharray="10"></path>
                <polyline id="Path-20" stroke="#979797" points="240 598 342 760.568538 240 877"></polyline>
                <path d="M237,598 L0,857" id="Path-21" stroke="#979797"></path>
                <path d="M444,635 L1127,572" id="Path-22" stroke="#979797" stroke-dasharray="10"></path>
            </g>
            <g id="Group-Copy-2" opacity="0.173107329" transform="translate(297.000000, 446.500000) scale(-1, 1) translate(-297.000000, -446.500000) translate(-180.000000, 75.000000)">
                <circle id="Oval" stroke="#C9C9C9" stroke-width="2" fill="#FFFFFF" cx="767.304965" cy="343.5" r="9.5"></circle>
                <circle id="Oval-Copy" stroke="#C9C9C9" stroke-width="2" fill="#FFFFFF" cx="668.304965" cy="601.5" r="9.5"></circle>
                <circle id="Oval-Copy-2" stroke="#C9C9C9" stroke-width="2" fill="#FFFFFF" cx="375.304965" cy="537.5" r="9.5"></circle>
                <circle id="Oval-Copy-3" stroke="#C9C9C9" stroke-width="2" fill="#FFFFFF" cx="525.304965" cy="410.5" r="9.5"></circle>
                <circle id="Oval-Copy-4" stroke="#C9C9C9" stroke-width="2" fill="#FFFFFF" cx="203.304965" cy="506.5" r="9.5"></circle>
                <circle id="Oval-Copy-9" stroke="#C9C9C9" stroke-width="2" fill="#FFFFFF" cx="489.304965" cy="97.5" r="9.5"></circle>
                <circle id="Oval-Copy-8" stroke="#C9C9C9" stroke-width="2" fill="#FFFFFF" cx="767.304965" cy="10.5" r="9.5"></circle>
                <circle id="Oval-Copy-7" stroke="#C9C9C9" stroke-width="2" fill="#FFFFFF" cx="689.304965" cy="239.5" r="9.5"></circle>
                <circle id="Oval-Copy-5" stroke="#C9C9C9" stroke-width="2" fill="#FFFFFF" cx="288.304965" cy="646.5" r="9.5"></circle>
                <circle id="Oval-Copy-6" stroke="#C9C9C9" stroke-width="2" fill="#FFFFFF" cx="546.304965" cy="239.5" r="9.5"></circle>
                <path d="M546.304965,239.5 L525.304965,410.5" id="Path-2" stroke="#979797"></path>
                <polygon id="Path-3" stroke="#979797" points="689.304965 239.5 546.304965 239.5 767.304965 10.5"></polygon>
                <polyline id="Path-4" stroke="#979797" points="668.304965 601.5 767.804965 343.5 767.804965 10.5"></polyline>
                <path d="M767.804965,343.5 L689.304965,239.5" id="Path-5" stroke="#979797"></path>
                <path d="M668.304965,601.5 L525.304965,410.5" id="Path-6" stroke="#979797" stroke-dasharray="10"></path>
                <path d="M288.304965,646.5 L375.304965,537.5" id="Path-7" stroke="#979797"></path>
                <path d="M375.304965,537.5 L525.304965,410.5" id="Path-8" stroke="#979797"></path>
                <path d="M375.304965,537.5 L668.304965,601.5" id="Path-9" stroke="#979797"></path>
                <polyline id="Path-10" stroke="#979797" points="288.304965 646.5 668.304965 601.5 678.804965 704.949477"></polyline>
                <path d="M846.364941,686.067885 L668.304965,601.5" id="Path-11" stroke="#979797"></path>
                <path d="M767.804965,343.5 L846.364941,250" id="Path-12" stroke="#979797"></path>
                <path d="M767.804965,10.5 L900.804965,158.028134" id="Path-13" stroke="#979797"></path>
                <path d="M546.304965,229 L488.804965,97.5577684" id="Path-15" stroke="#979797" stroke-dasharray="10"></path>
                <path d="M689.304965,239.5 L525.304965,410.5" id="Path-16" stroke="#979797"></path>
                <path id="Path-14" d="M203.395037,505.50818 L370.99578,536.202116 C371.645888,534.033966 373.837355,532.65638 376.115611,533.073618 C378.560234,533.521326 380.179054,535.866022 379.731347,538.310645 C379.28364,540.755269 376.938943,542.374089 374.49432,541.926382 C372.216046,541.50914 370.655012,539.444293 370.815504,537.186447 L203.214894,506.49182 L203.395037,505.50818 Z M375.935467,534.057259 C374.034094,533.709042 372.210441,534.968124 371.862224,536.869498 C371.514007,538.770871 372.77309,540.594525 374.674463,540.942741 C376.575837,541.290958 378.39949,540.031876 378.747707,538.130502 C379.095923,536.229129 377.836841,534.405475 375.935467,534.057259 Z" fill="#979797" fill-rule="nonzero"></path>
                <path d="" id="Path-17" stroke="#979797"></path>
                <path d="M375.304965,537.5 L488.804965,93" id="Line-2" stroke="#979797" stroke-linecap="square"></path>
                <path d="M203.304965,506.5 L767.804965,343" id="Path-18" stroke="#979797" stroke-dasharray="10"></path>
                <path d="M488.804965,97.5577684 L767.804965,10.5" id="Path-19" stroke="#979797" stroke-dasharray="10"></path>
                <polyline id="Path-20" stroke="#979797" points="203.304965 506 289.304965 643.783942 203.304965 742.464696"></polyline>
                <path d="M200.516759,506 L-2.27373675e-13,725" id="Path-21" stroke="#979797"></path>
                <path d="M375.304965,537.5 L953.804965,484.607986" id="Path-22" stroke="#979797" stroke-dasharray="10"></path>
            </g>
        </g>
    </g>
</svg>